<?xml version="1.0" encoding="utf-8"?>
<!-- Generator: Adobe Illustrator 19.0.1, SVG Export Plug-In . SVG Version: 6.00 Build 0)  -->
<svg version="1.1" id="Layer_1" xmlns="http://www.w3.org/2000/svg" xmlns:xlink="http://www.w3.org/1999/xlink" x="0px" y="0px"
	 viewBox="0 0 852 286" enable-background="new 0 0 852 286" xml:space="preserve">
<g>
	<linearGradient id="SVGID_1_" gradientUnits="userSpaceOnUse" x1="212" y1="273.0166" x2="212" y2="129">
		<stop  offset="0" style="stop-color:#FA4D2D"/>
		<stop  offset="1" style="stop-color:#E46736"/>
	</linearGradient>
	<path fill="url(#SVGID_1_)" d="M230,231.2c0,4.9-1.6,9.1-4.5,12.3c-3.2,3.8-7.7,5.7-13.5,5.7c-5.8,0-10.4-1.9-13.7-5.7
		c-2.9-3.3-4.3-7.4-4.3-12.3V196h60v-23h-60v-25h-25v81.9c0,12.5,3.9,22.9,11.8,31c7.9,8.1,18.3,12.2,31.2,12.2
		c12.9,0,23.3-4.1,31.2-12.2c7.9-8.1,11.8-18.4,11.8-31V222h-25V231.2z"/>
	<linearGradient id="SVGID_2_" gradientUnits="userSpaceOnUse" x1="314" y1="273.0166" x2="314" y2="129">
		<stop  offset="0" style="stop-color:#FA4D2D"/>
		<stop  offset="1" style="stop-color:#E46736"/>
	</linearGradient>
	<path fill="url(#SVGID_2_)" d="M332,231.2c0,4.9-1.3,9.1-4.3,12.3c-3.2,3.8-7.6,5.7-13.4,5.7c-5.8,0-10.5-1.9-13.8-5.7
		c-2.9-3.3-4.5-7.4-4.5-12.3V196h60v-23h-60v-25h-25v81.9c0,12.5,4.1,22.9,12,31c7.9,8.1,18.4,12.2,31.3,12.2
		c12.9,0,23.2-4.1,31-12.2c7.9-8.1,11.7-18.4,11.7-31V222h-25V231.2z"/>
	<linearGradient id="SVGID_3_" gradientUnits="userSpaceOnUse" x1="61.8909" y1="273.0166" x2="61.8909" y2="129">
		<stop  offset="0" style="stop-color:#FA4D2D"/>
		<stop  offset="1" style="stop-color:#E46736"/>
	</linearGradient>
	<polygon fill="url(#SVGID_3_)" points="106.7,173 72.1,173 40,208.4 40,129 15,129 15,271 40,271 40,242.6 52.5,229.6 76.9,271 
		108.8,271 70.2,211.3 	"/>
	<linearGradient id="SVGID_4_" gradientUnits="userSpaceOnUse" x1="389" y1="273.0166" x2="389" y2="129">
		<stop  offset="0" style="stop-color:#FA4D2D"/>
		<stop  offset="1" style="stop-color:#E46736"/>
	</linearGradient>
	<rect x="376" y="173" fill="url(#SVGID_4_)" width="26" height="98"/>
	<linearGradient id="SVGID_5_" gradientUnits="userSpaceOnUse" x1="134.5" y1="273.0166" x2="134.5" y2="129">
		<stop  offset="0" style="stop-color:#FA4D2D"/>
		<stop  offset="1" style="stop-color:#E46736"/>
	</linearGradient>
	<rect x="122" y="173" fill="url(#SVGID_5_)" width="25" height="98"/>
	<linearGradient id="SVGID_6_" gradientUnits="userSpaceOnUse" x1="389" y1="273.0166" x2="389" y2="129">
		<stop  offset="0" style="stop-color:#FA4D2D"/>
		<stop  offset="1" style="stop-color:#E46736"/>
	</linearGradient>
	<rect x="376" y="139" fill="url(#SVGID_6_)" width="26" height="23"/>
	<linearGradient id="SVGID_7_" gradientUnits="userSpaceOnUse" x1="134.5" y1="273.0166" x2="134.5" y2="129">
		<stop  offset="0" style="stop-color:#FA4D2D"/>
		<stop  offset="1" style="stop-color:#E46736"/>
	</linearGradient>
	<rect x="122" y="139" fill="url(#SVGID_7_)" width="25" height="23"/>
	<linearGradient id="SVGID_8_" gradientUnits="userSpaceOnUse" x1="683.8105" y1="273.0166" x2="683.8105" y2="129">
		<stop  offset="0" style="stop-color:#FA4D2D"/>
		<stop  offset="1" style="stop-color:#E46736"/>
	</linearGradient>
	<path fill="url(#SVGID_8_)" d="M684.1,170.4c-13.8,0-25.6,5-35.4,15.1c-9.8,10.1-14.7,22.2-14.7,36.4c0,14.2,4.9,26.3,14.7,36.2
		c9.8,9.9,21.6,14.9,35.4,14.9c11.9,0,22-2.8,30.4-8.9c8.4-6.1,14-14.1,16.9-24.1h-26.8c-4.1,7-11,11.2-20.7,11.2
		c-6,0-11.1-1.6-15.5-5.1c-4.4-3.5-7.4-8.1-9-14.1h73.9c0.3-3,0.4-5.3,0.4-7.8c0-16.5-4.9-29.7-14.6-39.6
		C709.8,175.2,698.2,170.4,684.1,170.4z M659.8,211c1.8-6,4.8-10.2,9.1-13.5c4.3-3.4,9.3-5,15-5c6,0,11.1,1.7,15.6,5
		c4.4,3.4,7.4,7.6,8.9,13.6H659.8z"/>
	<linearGradient id="SVGID_9_" gradientUnits="userSpaceOnUse" x1="794.5" y1="273.0166" x2="794.5" y2="129">
		<stop  offset="0" style="stop-color:#FA4D2D"/>
		<stop  offset="1" style="stop-color:#E46736"/>
	</linearGradient>
	<path fill="url(#SVGID_9_)" d="M827.6,182.3c-7-7.9-16-11.9-27.6-11.9c-10.1,0-19.1,4-25.1,12V173h-24v98h25v-57.5
		c0-5.6,1.7-10.2,5.3-13.9c3.5-3.7,8-5.5,13.6-5.5c12.2,0,18.2,6.5,18.2,19.4v4.5h25v-4.5C838,200.6,834.6,190.2,827.6,182.3z"/>
	<linearGradient id="SVGID_10_" gradientUnits="userSpaceOnUse" x1="469" y1="273.0166" x2="469" y2="129">
		<stop  offset="0" style="stop-color:#FA4D2D"/>
		<stop  offset="1" style="stop-color:#E46736"/>
	</linearGradient>
	<path fill="url(#SVGID_10_)" d="M474.3,170.4c-10.1,0-18.3,4-25.3,12V173h-24v98h25v-57.5c0-5.6,1.9-10.2,5.4-13.9
		c3.5-3.7,7.9-5.5,13.5-5.5c12.2,0,18.1,6.5,18.1,19.4V271h26v-57.5c0-12.9-3.7-23.3-10.7-31.3C495.3,174.4,485.8,170.4,474.3,170.4
		z"/>
	<linearGradient id="SVGID_11_" gradientUnits="userSpaceOnUse" x1="565.9496" y1="273.0166" x2="565.9496" y2="129">
		<stop  offset="0" style="stop-color:#FA4D2D"/>
		<stop  offset="1" style="stop-color:#E46736"/>
	</linearGradient>
	<path fill="url(#SVGID_11_)" d="M591,182.2c-8-7.6-17.4-11.4-28.7-11.4c-12.8,0-23.7,4.9-32.8,14.7c-9.1,9.8-13.6,21.9-13.6,36.4
		c0,14.3,4.6,26.4,13.7,36.2c9.1,9.8,20.3,14.7,33.1,14.7c11.9,0,21.3-4.2,30.3-12.5V271h23V129h-25V182.2z M584.1,241.6
		c-4.9,5.4-10.8,8.1-17.8,8.1c-7,0-12.9-2.7-17.8-8c-4.9-5.3-7.3-11.8-7.3-19.6c0-8,2.4-14.7,7.3-20c4.9-5.4,10.8-8.1,17.8-8.1
		c7,0,12.9,2.8,17.8,8.3c4.9,5.5,7.3,12.1,7.3,19.9C591.4,229.7,588.9,236.2,584.1,241.6z"/>
</g>
<g id="_x34_DeYwD.tif">
	<g>
		<linearGradient id="SVGID_12_" gradientUnits="userSpaceOnUse" x1="217.1552" y1="93.0002" x2="316.1928" y2="93.0002">
			<stop  offset="0" style="stop-color:#FA4D2D"/>
			<stop  offset="1" style="stop-color:#E46736"/>
		</linearGradient>
		<path fill="url(#SVGID_12_)" d="M293.5,125.8c-1.8,0.2-52.9,0.1-56.9-0.1c-4-0.2-7.9-1.1-11.3-3.2c-3.2-1.9-5.4-4.7-6.6-8.2
			c-0.9-2.6-1.5-5.4-1.5-8.2c0-1.2,0-2.3,0-3.5c0.1-3.6,1.1-6.8,3.4-9.6c1.2-1.4,2.8-2.4,4.5-3.3c2.7-1.5,15.7-9.1,26.7-23.1
			c2.7-3.3,5.9-5.6,10.3-6.2c2.5-0.3,4.9-0.6,7.4-0.5c4.5,0.1,8.2,1.9,11,5.6c11.4,15.1,26,24.1,28.9,25.6c3.5,1.9,5.6,4.8,6.4,8.7
			c0.3,1.4,0.1,2.8,0.5,4.2c-0.2,4.2-0.4,8.4-2.3,12.3c-2.2,4.6-5.8,7.2-10.6,8.5c-0.9,0.2-1.9,0.4-2.9,0.6
			C298.3,125.9,296.3,125.8,293.5,125.8z"/>
		<linearGradient id="SVGID_13_" gradientUnits="userSpaceOnUse" x1="270.8233" y1="37.5104" x2="296.5424" y2="37.5104">
			<stop  offset="0" style="stop-color:#FA4D2D"/>
			<stop  offset="1" style="stop-color:#E46736"/>
		</linearGradient>
		<path fill="url(#SVGID_13_)" d="M296.5,34.3c0.2,5-1,9.5-3,13.8c-1.2,2.4-2.8,4.6-4.8,6.4c-1.8,1.6-3.9,2.8-6.4,2.9
			c-1.6,0.1-3.1-0.3-4.5-1.1c-1.7-1-3-2.5-4-4.2c-1.6-2.8-2.6-5.8-2.7-9c0-0.8-0.3-1.6-0.3-2.5c0.3-4.3,0.9-8.5,2.7-12.5
			c1.2-2.7,2.8-5.2,4.9-7.2c1.6-1.5,3.4-2.7,5.6-3.1c2.2-0.5,4.4,0,6.3,1.2c2.1,1.4,3.4,3.3,4.4,5.6
			C296.1,27.8,296.7,31.1,296.5,34.3z"/>
		<linearGradient id="SVGID_14_" gradientUnits="userSpaceOnUse" x1="233.971" y1="36.3362" x2="260.6349" y2="36.3362">
			<stop  offset="0" style="stop-color:#FA4D2D"/>
			<stop  offset="1" style="stop-color:#E46736"/>
		</linearGradient>
		<path fill="url(#SVGID_14_)" d="M260.6,40.6c-0.1,4-0.7,7.3-2.4,10.4c-1.5,2.7-3.8,4.4-6.9,4.9c-1.5,0.2-3-0.2-4.4-0.8
			c-1.6-0.7-3.1-1.7-4.4-2.9c-4.4-4.2-6.7-9.3-7.9-15.1c-0.5-2.3-0.7-4.6-0.5-7c0.2-3.3,0.9-6.6,2.9-9.4c0.9-1.3,2-2.4,3.4-3.1
			c2.4-1.3,4.9-1.2,7.4-0.2c3,1.2,5.3,3.3,7.1,5.9c2.9,4,4.6,8.5,5.3,13.4C260.4,38.2,260.8,39.6,260.6,40.6z"/>
		<linearGradient id="SVGID_15_" gradientUnits="userSpaceOnUse" x1="209.5" y1="61.4444" x2="236.8446" y2="61.4444">
			<stop  offset="0" style="stop-color:#FA4D2D"/>
			<stop  offset="1" style="stop-color:#E46736"/>
		</linearGradient>
		<path fill="url(#SVGID_15_)" d="M209.6,55.7c-0.2-3.2,0.4-6.1,1.9-8.8c1.8-3.2,4.5-5,8.3-4.8c2.4,0.1,4.5,1.2,6.4,2.6
			c3.8,2.8,6.3,6.6,8.2,10.9c1.1,2.5,1.9,5.2,2.2,7.9c0.5,4.2,0.4,8.4-1.7,12.3c-1.3,2.3-3.1,4-5.7,4.7c-2.1,0.5-4.2,0.2-6.1-0.7
			c-3.1-1.4-5.5-3.6-7.5-6.2c-2.9-3.9-4.7-8.2-5.6-12.9C209.6,59,209.4,57.3,209.6,55.7z"/>
		<linearGradient id="SVGID_16_" gradientUnits="userSpaceOnUse" x1="298.0222" y1="64.7362" x2="324.5" y2="64.7362">
			<stop  offset="0" style="stop-color:#FA4D2D"/>
			<stop  offset="1" style="stop-color:#E46736"/>
		</linearGradient>
		<path fill="url(#SVGID_16_)" d="M324.5,60.3c0.1,4.9-1.2,9.4-3.3,13.7c-1.8,3.6-4.3,6.6-7.8,8.8c-2.5,1.6-5.2,1.9-8,1.1
			c-1.5-0.4-2.8-1.5-3.8-2.7c-1.7-2-2.5-4.4-3.1-6.9c-0.4-1.7-0.5-3.5-0.5-5.2c0-2,0.3-4.1,0.8-6.1c1-3.8,2.4-7.5,4.6-10.7
			c1.7-2.4,3.8-4.5,6.4-5.9c4.2-2.2,8.7-1.4,11.5,2.4c1.6,2.1,2.4,4.5,2.9,7.1C324.5,57.4,324.5,58.8,324.5,60.3z"/>
	</g>
</g>
</svg>
